<?xml version="1.0" standalone="no"?>
<!DOCTYPE svg PUBLIC "-//W3C//DTD SVG 20010904//EN"
 "http://www.w3.org/TR/2001/REC-SVG-20010904/DTD/svg10.dtd">
<svg version="1.0" xmlns="http://www.w3.org/2000/svg"
 width="90.000000pt" height="90.000000pt" viewBox="0 0 90.000000 90.000000"
 preserveAspectRatio="xMidYMid meet">
<metadata>
Created by potrace 1.14, written by Peter Selinger 2001-2017
</metadata>
<g transform="translate(0.000000,90.000000) scale(0.100000,-0.100000)"
fill="#000000" stroke="none">
<path d="M48 867 c-48 -41 -60 -90 -36 -158 15 -44 29 -57 64 -62 38 -6 60 7
80 44 53 103 -31 241 -108 176z"/>
<path d="M436 882 c-25 -5 -36 -17 -70 -72 -15 -25 -31 -52 -36 -60 -5 -8 -46
-78 -90 -155 -44 -77 -84 -147 -90 -155 -6 -8 -15 -26 -21 -40 -5 -13 -13 -27
-17 -30 -4 -3 -12 -14 -18 -25 -6 -11 -29 -52 -51 -91 -47 -83 -55 -157 -21
-193 10 -12 15 -21 11 -22 -9 0 37 -21 52 -24 24 -3 54 20 75 59 13 22 30 49
38 59 8 9 11 17 6 17 -5 0 -4 4 2 8 6 4 26 34 45 67 19 33 40 69 46 80 7 11
19 34 28 50 9 17 24 44 34 60 10 17 27 46 38 65 52 91 68 116 78 122 5 4 7 8
3 8 -4 0 6 23 23 51 52 83 42 183 -21 213 -14 7 -34 11 -44 8z"/>
<path d="M768 862 c-30 -31 -41 -64 -40 -110 2 -57 31 -96 78 -106 80 -16 127
132 65 203 -38 43 -72 47 -103 13z"/>
<path d="M645 601 c-37 -11 -51 -26 -98 -104 -26 -43 -47 -80 -47 -82 0 -3
-19 -35 -42 -72 -81 -132 -91 -156 -92 -204 -1 -56 19 -96 54 -113 52 -25 69
-11 148 122 160 270 166 282 166 337 0 51 -25 104 -51 105 -6 0 -13 4 -15 8
-1 5 -12 6 -23 3z"/>
</g>
</svg>
